<?xml version="1.0"?>
<!DOCTYPE svg PUBLIC "-//W3C//DTD SVG 1.0//EN"
"http://www.w3.org/TR/2001/REC-SVG-20010904/DTD/svg10.dtd">
<svg xmlns:svg="http://www.w3.org/2000/svg"
     xmlns:xlink="http://www.w3.org/1999/xlink"
     width="425.20" height="425.20"
     version="1.0">
<title></title>
<desc></desc>
<!-- drawing begins here -->
<text x="212.60" y="94.49" style="font-size:16pt;text-anchor:middle;fill:black;stroke:none;font-weight:normal;font-family:sanserif" >flow domain for scramjet inlet</text>
<polygon points="295.28,342.52 296.85,342.52 298.43,342.52 300.00,342.52 301.57,342.52 303.15,342.52 304.72,342.52 306.30,342.52 307.87,342.52 309.45,342.52 311.02,342.52 312.60,342.52 314.17,342.52 315.75,342.52 317.32,342.52 318.90,342.52 320.47,342.52 322.05,342.52 323.62,342.52 325.20,342.52 326.77,342.52 328.35,342.52 329.92,342.52 331.50,342.52 333.07,342.52 334.65,342.52 336.22,342.52 337.80,342.52 339.37,342.52 340.94,342.52 342.52,342.52 342.52,342.13 342.52,341.73 342.52,341.34 342.52,340.94 342.52,340.55 342.52,340.16 342.52,339.76 342.52,339.37 342.52,338.98 342.52,338.58 342.52,338.19 342.52,337.80 342.52,337.40 342.52,337.01 342.52,336.61 342.52,336.22 342.52,335.83 342.52,335.43 342.52,335.04 342.52,334.65 342.52,334.25 342.52,333.86 342.52,333.46 342.52,333.07 342.52,332.68 342.52,332.28 342.52,331.89 342.52,331.50 342.52,331.10 342.52,330.71 339.76,330.71 337.01,330.71 334.25,330.71 331.50,330.71 328.74,330.71 325.98,330.71 323.23,330.71 320.47,330.71 317.72,330.71 314.96,330.71 312.20,330.71 309.45,330.71 306.69,330.71 303.94,330.71 301.18,330.71 298.43,330.71 295.67,330.71 292.91,330.71 290.16,330.71 287.40,330.71 284.65,330.71 281.89,330.71 279.13,330.71 276.38,330.71 273.62,330.71 270.87,330.71 268.11,330.71 265.35,330.71 262.60,330.71 259.84,330.71 261.02,331.10 262.20,331.50 263.39,331.89 264.57,332.28 265.75,332.68 266.93,333.07 268.11,333.46 269.29,333.86 270.47,334.25 271.65,334.65 272.83,335.04 274.02,335.43 275.20,335.83 276.38,336.22 277.56,336.61 278.74,337.01 279.92,337.40 281.10,337.80 282.28,338.19 283.46,338.58 284.65,338.98 285.83,339.37 287.01,339.76 288.19,340.16 289.37,340.55 290.55,340.94 291.73,341.34 292.91,341.73 294.09,342.13 295.28,342.52" style="fill:green;fill-opacity:0.5"/>
<polygon points="295.28,342.52 296.85,342.52 298.43,342.52 300.00,342.52 301.57,342.52 303.15,342.52 304.72,342.52 306.30,342.52 307.87,342.52 309.45,342.52 311.02,342.52 312.60,342.52 314.17,342.52 315.75,342.52 317.32,342.52 318.90,342.52 320.47,342.52 322.05,342.52 323.62,342.52 325.20,342.52 326.77,342.52 328.35,342.52 329.92,342.52 331.50,342.52 333.07,342.52 334.65,342.52 336.22,342.52 337.80,342.52 339.37,342.52 340.94,342.52 342.52,342.52 342.52,342.13 342.52,341.73 342.52,341.34 342.52,340.94 342.52,340.55 342.52,340.16 342.52,339.76 342.52,339.37 342.52,338.98 342.52,338.58 342.52,338.19 342.52,337.80 342.52,337.40 342.52,337.01 342.52,336.61 342.52,336.22 342.52,335.83 342.52,335.43 342.52,335.04 342.52,334.65 342.52,334.25 342.52,333.86 342.52,333.46 342.52,333.07 342.52,332.68 342.52,332.28 342.52,331.89 342.52,331.50 342.52,331.10 342.52,330.71 339.76,330.71 337.01,330.71 334.25,330.71 331.50,330.71 328.74,330.71 325.98,330.71 323.23,330.71 320.47,330.71 317.72,330.71 314.96,330.71 312.20,330.71 309.45,330.71 306.69,330.71 303.94,330.71 301.18,330.71 298.43,330.71 295.67,330.71 292.91,330.71 290.16,330.71 287.40,330.71 284.65,330.71 281.89,330.71 279.13,330.71 276.38,330.71 273.62,330.71 270.87,330.71 268.11,330.71 265.35,330.71 262.60,330.71 259.84,330.71 261.02,331.10 262.20,331.50 263.39,331.89 264.57,332.28 265.75,332.68 266.93,333.07 268.11,333.46 269.29,333.86 270.47,334.25 271.65,334.65 272.83,335.04 274.02,335.43 275.20,335.83 276.38,336.22 277.56,336.61 278.74,337.01 279.92,337.40 281.10,337.80 282.28,338.19 283.46,338.58 284.65,338.98 285.83,339.37 287.01,339.76 288.19,340.16 289.37,340.55 290.55,340.94 291.73,341.34 292.91,341.73 294.09,342.13 295.28,342.52" style="fill:none;stroke:black;stroke-width:0.28;stroke-linecap:round;stroke-opacity:0.5"/>
<polygon points="47.24,377.95 55.61,377.44 63.97,376.93 72.33,376.42 80.69,375.91 89.05,375.40 97.41,374.89 105.77,374.38 114.13,373.87 122.49,373.36 130.85,372.85 139.21,372.34 147.58,371.83 155.94,371.31 164.30,370.80 172.53,369.36 180.71,367.57 188.89,365.78 197.08,363.99 205.26,362.20 213.44,360.41 221.63,358.62 229.81,356.83 237.99,355.04 246.18,353.26 254.36,351.47 262.54,349.68 270.73,347.89 278.91,346.10 287.09,344.31 295.28,342.52 294.09,342.13 292.91,341.73 291.73,341.34 290.55,340.94 289.37,340.55 288.19,340.16 287.01,339.76 285.83,339.37 284.65,338.98 283.46,338.58 282.28,338.19 281.10,337.80 279.92,337.40 278.74,337.01 277.56,336.61 276.38,336.22 275.20,335.83 274.02,335.43 272.83,335.04 271.65,334.65 270.47,334.25 269.29,333.86 268.11,333.46 266.93,333.07 265.75,332.68 264.57,332.28 263.39,331.89 262.20,331.50 261.02,331.10 259.84,330.71 252.76,330.71 245.67,330.71 238.58,330.71 231.50,330.71 224.41,330.71 217.32,330.71 210.24,330.71 203.15,330.71 196.06,330.71 188.98,330.71 181.89,330.71 174.80,330.71 167.72,330.71 160.63,330.71 153.54,330.71 146.46,330.71 139.37,330.71 132.28,330.71 125.20,330.71 118.11,330.71 111.02,330.71 103.94,330.71 96.85,330.71 89.76,330.71 82.68,330.71 75.59,330.71 68.50,330.71 61.42,330.71 54.33,330.71 47.24,330.71 47.24,332.28 47.24,333.86 47.24,335.43 47.24,337.01 47.24,338.58 47.24,340.16 47.24,341.73 47.24,343.31 47.24,344.88 47.24,346.46 47.24,348.03 47.24,349.61 47.24,351.18 47.24,352.76 47.24,354.33 47.24,355.91 47.24,357.48 47.24,359.06 47.24,360.63 47.24,362.20 47.24,363.78 47.24,365.35 47.24,366.93 47.24,368.50 47.24,370.08 47.24,371.65 47.24,373.23 47.24,374.80 47.24,376.38 47.24,377.95" style="fill:green;fill-opacity:0.5"/>
<polygon points="47.24,377.95 55.61,377.44 63.97,376.93 72.33,376.42 80.69,375.91 89.05,375.40 97.41,374.89 105.77,374.38 114.13,373.87 122.49,373.36 130.85,372.85 139.21,372.34 147.58,371.83 155.94,371.31 164.30,370.80 172.53,369.36 180.71,367.57 188.89,365.78 197.08,363.99 205.26,362.20 213.44,360.41 221.63,358.62 229.81,356.83 237.99,355.04 246.18,353.26 254.36,351.47 262.54,349.68 270.73,347.89 278.91,346.10 287.09,344.31 295.28,342.52 294.09,342.13 292.91,341.73 291.73,341.34 290.55,340.94 289.37,340.55 288.19,340.16 287.01,339.76 285.83,339.37 284.65,338.98 283.46,338.58 282.28,338.19 281.10,337.80 279.92,337.40 278.74,337.01 277.56,336.61 276.38,336.22 275.20,335.83 274.02,335.43 272.83,335.04 271.65,334.65 270.47,334.25 269.29,333.86 268.11,333.46 266.93,333.07 265.75,332.68 264.57,332.28 263.39,331.89 262.20,331.50 261.02,331.10 259.84,330.71 252.76,330.71 245.67,330.71 238.58,330.71 231.50,330.71 224.41,330.71 217.32,330.71 210.24,330.71 203.15,330.71 196.06,330.71 188.98,330.71 181.89,330.71 174.80,330.71 167.72,330.71 160.63,330.71 153.54,330.71 146.46,330.71 139.37,330.71 132.28,330.71 125.20,330.71 118.11,330.71 111.02,330.71 103.94,330.71 96.85,330.71 89.76,330.71 82.68,330.71 75.59,330.71 68.50,330.71 61.42,330.71 54.33,330.71 47.24,330.71 47.24,332.28 47.24,333.86 47.24,335.43 47.24,337.01 47.24,338.58 47.24,340.16 47.24,341.73 47.24,343.31 47.24,344.88 47.24,346.46 47.24,348.03 47.24,349.61 47.24,351.18 47.24,352.76 47.24,354.33 47.24,355.91 47.24,357.48 47.24,359.06 47.24,360.63 47.24,362.20 47.24,363.78 47.24,365.35 47.24,366.93 47.24,368.50 47.24,370.08 47.24,371.65 47.24,373.23 47.24,374.80 47.24,376.38 47.24,377.95" style="fill:none;stroke:black;stroke-width:0.28;stroke-linecap:round;stroke-opacity:0.5"/>
<path d="M 47.24,377.95 L 55.61,377.44 L 63.97,376.93 L 72.33,376.42 L 80.69,375.91 L 89.05,375.40 L 97.41,374.89 L 105.77,374.38 L 114.13,373.87 L 122.49,373.36 L 130.85,372.85 L 139.21,372.34 L 147.58,371.83 L 155.94,371.31 L 164.30,370.80 L 172.53,369.36 L 180.71,367.57 L 188.89,365.78 L 197.08,363.99 L 205.26,362.20 L 213.44,360.41 L 221.63,358.62 L 229.81,356.83 L 237.99,355.04 L 246.18,353.26 L 254.36,351.47 L 262.54,349.68 L 270.73,347.89 L 278.91,346.10 L 287.09,344.31 L 295.28,342.52" style="fill:none;stroke:black;stroke-width:1.42;stroke-linecap:round;stroke-opacity:1"/>
<path d="M 295.28,342.52 L 296.85,342.52 L 298.43,342.52 L 300.00,342.52 L 301.57,342.52 L 303.15,342.52 L 304.72,342.52 L 306.30,342.52 L 307.87,342.52 L 309.45,342.52 L 311.02,342.52 L 312.60,342.52 L 314.17,342.52 L 315.75,342.52 L 317.32,342.52 L 318.90,342.52 L 320.47,342.52 L 322.05,342.52 L 323.62,342.52 L 325.20,342.52 L 326.77,342.52 L 328.35,342.52 L 329.92,342.52 L 331.50,342.52 L 333.07,342.52 L 334.65,342.52 L 336.22,342.52 L 337.80,342.52 L 339.37,342.52 L 340.94,342.52 L 342.52,342.52" style="fill:none;stroke:black;stroke-width:1.42;stroke-linecap:round;stroke-opacity:1"/>
<path d="M 259.84,330.71 L 262.60,330.71 L 265.35,330.71 L 268.11,330.71 L 270.87,330.71 L 273.62,330.71 L 276.38,330.71 L 279.13,330.71 L 281.89,330.71 L 284.65,330.71 L 287.40,330.71 L 290.16,330.71 L 292.91,330.71 L 295.67,330.71 L 298.43,330.71 L 301.18,330.71 L 303.94,330.71 L 306.69,330.71 L 309.45,330.71 L 312.20,330.71 L 314.96,330.71 L 317.72,330.71 L 320.47,330.71 L 323.23,330.71 L 325.98,330.71 L 328.74,330.71 L 331.50,330.71 L 334.25,330.71 L 337.01,330.71 L 339.76,330.71 L 342.52,330.71" style="fill:none;stroke:black;stroke-width:1.42;stroke-linecap:round;stroke-opacity:1"/>
<circle cx="295.28" cy="342.52" r="2.83" style="fill:black" />
<text x="295.28" y="338.27" style="font-size:10pt;text-anchor:middle;fill:black;stroke:none;font-weight:normal;font-family:sanserif" >rn</text>
<circle cx="47.24" cy="330.71" r="2.83" style="fill:black" />
<text x="47.24" y="326.46" style="font-size:10pt;text-anchor:middle;fill:black;stroke:none;font-weight:normal;font-family:sanserif" >i2</text>
<circle cx="47.24" cy="377.95" r="2.83" style="fill:black" />
<text x="47.24" y="373.70" style="font-size:10pt;text-anchor:middle;fill:black;stroke:none;font-weight:normal;font-family:sanserif" >i1</text>
<circle cx="342.52" cy="330.71" r="2.83" style="fill:black" />
<text x="342.52" y="326.46" style="font-size:10pt;text-anchor:middle;fill:black;stroke:none;font-weight:normal;font-family:sanserif" >o2</text>
<circle cx="342.52" cy="342.52" r="2.83" style="fill:black" />
<text x="342.52" y="338.27" style="font-size:10pt;text-anchor:middle;fill:black;stroke:none;font-weight:normal;font-family:sanserif" >o1</text>
<circle cx="259.84" cy="330.71" r="2.83" style="fill:black" />
<text x="259.84" y="326.46" style="font-size:10pt;text-anchor:middle;fill:black;stroke:none;font-weight:normal;font-family:sanserif" >c</text>
<circle cx="166.54" cy="370.67" r="2.83" style="fill:black" />
<text x="166.54" y="366.41" style="font-size:10pt;text-anchor:middle;fill:black;stroke:none;font-weight:normal;font-family:sanserif" >r1</text>
<g opacity="1" >
<line x1="47.24" y1="382.68" x2="401.57" y2="382.68" style="fill:none;stroke:black;stroke-width:0.85;stroke-linecap:round;stroke-opacity:1" />
<line x1="47.24" y1="382.68" x2="47.24" y2="389.76" style="fill:none;stroke:black;stroke-width:0.85;stroke-linecap:round;stroke-opacity:1" />
<line x1="165.35" y1="382.68" x2="165.35" y2="389.76" style="fill:none;stroke:black;stroke-width:0.85;stroke-linecap:round;stroke-opacity:1" />
<line x1="283.46" y1="382.68" x2="283.46" y2="389.76" style="fill:none;stroke:black;stroke-width:0.85;stroke-linecap:round;stroke-opacity:1" />
<line x1="401.57" y1="382.68" x2="401.57" y2="389.76" style="fill:none;stroke:black;stroke-width:0.85;stroke-linecap:round;stroke-opacity:1" />
</g>
<text x="47.24" y="401.57" style="font-size:10pt;text-anchor:middle;fill:black;stroke:none;font-weight:normal;font-family:sanserif" >0.00</text>
<text x="165.35" y="401.57" style="font-size:10pt;text-anchor:middle;fill:black;stroke:none;font-weight:normal;font-family:sanserif" >0.50</text>
<text x="283.46" y="401.57" style="font-size:10pt;text-anchor:middle;fill:black;stroke:none;font-weight:normal;font-family:sanserif" >1.00</text>
<text x="401.57" y="401.57" style="font-size:10pt;text-anchor:middle;fill:black;stroke:none;font-weight:normal;font-family:sanserif" >1.50</text>
<text x="236.22" y="413.39" style="font-size:12pt;text-anchor:middle;fill:black;stroke:none;font-weight:normal;font-family:sanserif" >x</text>
<g opacity="1" >
<line x1="35.43" y1="377.95" x2="35.43" y2="23.62" style="fill:none;stroke:black;stroke-width:0.85;stroke-linecap:round;stroke-opacity:1" />
<line x1="35.43" y1="377.95" x2="28.35" y2="377.95" style="fill:none;stroke:black;stroke-width:0.85;stroke-linecap:round;stroke-opacity:1" />
<line x1="35.43" y1="259.84" x2="28.35" y2="259.84" style="fill:none;stroke:black;stroke-width:0.85;stroke-linecap:round;stroke-opacity:1" />
<line x1="35.43" y1="141.73" x2="28.35" y2="141.73" style="fill:none;stroke:black;stroke-width:0.85;stroke-linecap:round;stroke-opacity:1" />
<line x1="35.43" y1="23.62" x2="28.35" y2="23.62" style="fill:none;stroke:black;stroke-width:0.85;stroke-linecap:round;stroke-opacity:1" />
</g>
<text x="28.35" y="377.95" style="font-size:10pt;text-anchor:end;fill:black;stroke:none;font-weight:normal;font-family:sanserif" >0.00</text>
<text x="28.35" y="259.84" style="font-size:10pt;text-anchor:end;fill:black;stroke:none;font-weight:normal;font-family:sanserif" >0.50</text>
<text x="28.35" y="141.73" style="font-size:10pt;text-anchor:end;fill:black;stroke:none;font-weight:normal;font-family:sanserif" >1.00</text>
<text x="28.35" y="23.62" style="font-size:10pt;text-anchor:end;fill:black;stroke:none;font-weight:normal;font-family:sanserif" >1.50</text>
<text x="11.81" y="188.98" style="font-size:12pt;text-anchor:middle;fill:black;stroke:none;font-weight:normal;font-family:sanserif" >y</text>
<!-- end of drawing -->
</svg>
